<mxfile host="app.diagrams.net" modified="2023-11-05T02:16:58.792Z" agent="Mozilla/5.0 (Windows NT 10.0; Win64; x64) AppleWebKit/537.36 (KHTML, like Gecko) Chrome/118.0.0.0 Safari/537.36" etag="pMIph6xs_upZyaSOh0ct" version="22.0.8" type="github">
  <diagram name="Page-1" id="whmqMUQN8AT_rhxbyXaO">
    <mxGraphModel dx="1014" dy="670" grid="1" gridSize="10" guides="1" tooltips="1" connect="1" arrows="1" fold="1" page="1" pageScale="1" pageWidth="850" pageHeight="1100" math="0" shadow="0">
      <root>
        <mxCell id="0" />
        <mxCell id="1" parent="0" />
        <mxCell id="KTBhJwbWVJIcJmlqZFoL-1" value="" style="rounded=1;whiteSpace=wrap;html=1;" vertex="1" parent="1">
          <mxGeometry x="75" y="40" width="90" height="60" as="geometry" />
        </mxCell>
        <mxCell id="KTBhJwbWVJIcJmlqZFoL-5" value="" style="rounded=1;whiteSpace=wrap;html=1;" vertex="1" parent="1">
          <mxGeometry x="225" y="40" width="90" height="60" as="geometry" />
        </mxCell>
        <mxCell id="KTBhJwbWVJIcJmlqZFoL-6" value="" style="rounded=1;whiteSpace=wrap;html=1;" vertex="1" parent="1">
          <mxGeometry x="375" y="40" width="90" height="60" as="geometry" />
        </mxCell>
        <mxCell id="KTBhJwbWVJIcJmlqZFoL-7" value="" style="rounded=1;whiteSpace=wrap;html=1;" vertex="1" parent="1">
          <mxGeometry x="520" y="40" width="90" height="60" as="geometry" />
        </mxCell>
        <mxCell id="KTBhJwbWVJIcJmlqZFoL-8" value="" style="rounded=1;whiteSpace=wrap;html=1;" vertex="1" parent="1">
          <mxGeometry x="670" y="40" width="90" height="60" as="geometry" />
        </mxCell>
        <mxCell id="KTBhJwbWVJIcJmlqZFoL-9" value="" style="rounded=1;whiteSpace=wrap;html=1;" vertex="1" parent="1">
          <mxGeometry x="670" y="160" width="90" height="60" as="geometry" />
        </mxCell>
        <mxCell id="KTBhJwbWVJIcJmlqZFoL-10" value="" style="rounded=1;whiteSpace=wrap;html=1;" vertex="1" parent="1">
          <mxGeometry x="670" y="280" width="90" height="60" as="geometry" />
        </mxCell>
        <mxCell id="KTBhJwbWVJIcJmlqZFoL-11" value="" style="rounded=1;whiteSpace=wrap;html=1;" vertex="1" parent="1">
          <mxGeometry x="670" y="400" width="90" height="60" as="geometry" />
        </mxCell>
        <mxCell id="KTBhJwbWVJIcJmlqZFoL-12" value="" style="rounded=1;whiteSpace=wrap;html=1;" vertex="1" parent="1">
          <mxGeometry x="670" y="520" width="90" height="60" as="geometry" />
        </mxCell>
        <mxCell id="KTBhJwbWVJIcJmlqZFoL-13" value="" style="rounded=1;whiteSpace=wrap;html=1;" vertex="1" parent="1">
          <mxGeometry x="520" y="160" width="90" height="60" as="geometry" />
        </mxCell>
        <mxCell id="KTBhJwbWVJIcJmlqZFoL-14" value="" style="rounded=1;whiteSpace=wrap;html=1;" vertex="1" parent="1">
          <mxGeometry x="375" y="160" width="90" height="60" as="geometry" />
        </mxCell>
        <mxCell id="KTBhJwbWVJIcJmlqZFoL-15" value="" style="rounded=1;whiteSpace=wrap;html=1;" vertex="1" parent="1">
          <mxGeometry x="230" y="160" width="90" height="60" as="geometry" />
        </mxCell>
        <mxCell id="KTBhJwbWVJIcJmlqZFoL-16" value="" style="rounded=1;whiteSpace=wrap;html=1;" vertex="1" parent="1">
          <mxGeometry x="75" y="160" width="90" height="60" as="geometry" />
        </mxCell>
        <mxCell id="KTBhJwbWVJIcJmlqZFoL-17" value="" style="rounded=1;whiteSpace=wrap;html=1;" vertex="1" parent="1">
          <mxGeometry x="75" y="280" width="90" height="60" as="geometry" />
        </mxCell>
        <mxCell id="KTBhJwbWVJIcJmlqZFoL-18" value="" style="rounded=1;whiteSpace=wrap;html=1;" vertex="1" parent="1">
          <mxGeometry x="75" y="400" width="90" height="60" as="geometry" />
        </mxCell>
        <mxCell id="KTBhJwbWVJIcJmlqZFoL-19" value="" style="rounded=1;whiteSpace=wrap;html=1;" vertex="1" parent="1">
          <mxGeometry x="75" y="520" width="90" height="60" as="geometry" />
        </mxCell>
        <mxCell id="KTBhJwbWVJIcJmlqZFoL-20" value="" style="rounded=1;whiteSpace=wrap;html=1;" vertex="1" parent="1">
          <mxGeometry x="230" y="280" width="90" height="60" as="geometry" />
        </mxCell>
        <mxCell id="KTBhJwbWVJIcJmlqZFoL-22" value="" style="rounded=1;whiteSpace=wrap;html=1;" vertex="1" parent="1">
          <mxGeometry x="520" y="280" width="90" height="60" as="geometry" />
        </mxCell>
        <mxCell id="KTBhJwbWVJIcJmlqZFoL-23" value="" style="rounded=1;whiteSpace=wrap;html=1;" vertex="1" parent="1">
          <mxGeometry x="230" y="400" width="90" height="60" as="geometry" />
        </mxCell>
        <mxCell id="KTBhJwbWVJIcJmlqZFoL-24" value="" style="rounded=1;whiteSpace=wrap;html=1;" vertex="1" parent="1">
          <mxGeometry x="375" y="400" width="90" height="60" as="geometry" />
        </mxCell>
        <mxCell id="KTBhJwbWVJIcJmlqZFoL-25" value="" style="rounded=1;whiteSpace=wrap;html=1;" vertex="1" parent="1">
          <mxGeometry x="520" y="400" width="90" height="60" as="geometry" />
        </mxCell>
        <mxCell id="KTBhJwbWVJIcJmlqZFoL-26" value="" style="rounded=1;whiteSpace=wrap;html=1;" vertex="1" parent="1">
          <mxGeometry x="230" y="520" width="90" height="60" as="geometry" />
        </mxCell>
        <mxCell id="KTBhJwbWVJIcJmlqZFoL-27" value="" style="rounded=1;whiteSpace=wrap;html=1;" vertex="1" parent="1">
          <mxGeometry x="375" y="520" width="90" height="60" as="geometry" />
        </mxCell>
        <mxCell id="KTBhJwbWVJIcJmlqZFoL-28" value="" style="rounded=1;whiteSpace=wrap;html=1;" vertex="1" parent="1">
          <mxGeometry x="520" y="520" width="90" height="60" as="geometry" />
        </mxCell>
        <mxCell id="KTBhJwbWVJIcJmlqZFoL-30" value="Start S1" style="text;html=1;strokeColor=none;fillColor=none;align=center;verticalAlign=middle;whiteSpace=wrap;rounded=0;" vertex="1" parent="1">
          <mxGeometry x="75" y="55" width="60" height="30" as="geometry" />
        </mxCell>
        <mxCell id="KTBhJwbWVJIcJmlqZFoL-31" value="S2" style="text;html=1;strokeColor=none;fillColor=none;align=center;verticalAlign=middle;whiteSpace=wrap;rounded=0;" vertex="1" parent="1">
          <mxGeometry x="240" y="55" width="60" height="30" as="geometry" />
        </mxCell>
        <mxCell id="KTBhJwbWVJIcJmlqZFoL-32" value="S3" style="text;html=1;strokeColor=none;fillColor=none;align=center;verticalAlign=middle;whiteSpace=wrap;rounded=0;" vertex="1" parent="1">
          <mxGeometry x="390" y="55" width="60" height="30" as="geometry" />
        </mxCell>
        <mxCell id="KTBhJwbWVJIcJmlqZFoL-33" value="S4" style="text;html=1;strokeColor=none;fillColor=none;align=center;verticalAlign=middle;whiteSpace=wrap;rounded=0;" vertex="1" parent="1">
          <mxGeometry x="535" y="55" width="60" height="30" as="geometry" />
        </mxCell>
        <mxCell id="KTBhJwbWVJIcJmlqZFoL-35" value="S5" style="text;html=1;strokeColor=none;fillColor=none;align=center;verticalAlign=middle;whiteSpace=wrap;rounded=0;" vertex="1" parent="1">
          <mxGeometry x="685" y="55" width="60" height="30" as="geometry" />
        </mxCell>
        <mxCell id="KTBhJwbWVJIcJmlqZFoL-36" value="S6" style="text;html=1;strokeColor=none;fillColor=none;align=center;verticalAlign=middle;whiteSpace=wrap;rounded=0;" vertex="1" parent="1">
          <mxGeometry x="685" y="175" width="60" height="30" as="geometry" />
        </mxCell>
        <mxCell id="KTBhJwbWVJIcJmlqZFoL-43" value="" style="rounded=1;whiteSpace=wrap;html=1;" vertex="1" parent="1">
          <mxGeometry x="375" y="280" width="90" height="60" as="geometry" />
        </mxCell>
        <mxCell id="KTBhJwbWVJIcJmlqZFoL-44" value="" style="shape=flexArrow;endArrow=classic;html=1;rounded=0;exitX=1.033;exitY=0.625;exitDx=0;exitDy=0;exitPerimeter=0;" edge="1" parent="1">
          <mxGeometry width="50" height="50" relative="1" as="geometry">
            <mxPoint x="318" y="69.5" as="sourcePoint" />
            <mxPoint x="375" y="69.5" as="targetPoint" />
          </mxGeometry>
        </mxCell>
        <mxCell id="KTBhJwbWVJIcJmlqZFoL-46" value="" style="shape=flexArrow;endArrow=classic;html=1;rounded=0;exitX=1.033;exitY=0.625;exitDx=0;exitDy=0;exitPerimeter=0;" edge="1" parent="1">
          <mxGeometry width="50" height="50" relative="1" as="geometry">
            <mxPoint x="463" y="69.5" as="sourcePoint" />
            <mxPoint x="520" y="69.5" as="targetPoint" />
          </mxGeometry>
        </mxCell>
        <mxCell id="KTBhJwbWVJIcJmlqZFoL-48" value="" style="shape=flexArrow;endArrow=classic;html=1;rounded=0;exitX=1.033;exitY=0.625;exitDx=0;exitDy=0;exitPerimeter=0;" edge="1" parent="1">
          <mxGeometry width="50" height="50" relative="1" as="geometry">
            <mxPoint x="613" y="69.5" as="sourcePoint" />
            <mxPoint x="670" y="69.5" as="targetPoint" />
          </mxGeometry>
        </mxCell>
        <mxCell id="KTBhJwbWVJIcJmlqZFoL-50" value="" style="shape=flexArrow;endArrow=classic;html=1;rounded=0;exitX=1.033;exitY=0.625;exitDx=0;exitDy=0;exitPerimeter=0;" edge="1" parent="1">
          <mxGeometry width="50" height="50" relative="1" as="geometry">
            <mxPoint x="168" y="69.5" as="sourcePoint" />
            <mxPoint x="225" y="69.5" as="targetPoint" />
          </mxGeometry>
        </mxCell>
      </root>
    </mxGraphModel>
  </diagram>
</mxfile>
